<svg xmlns="http://www.w3.org/2000/svg" version="1.0" viewBox="0 0 709 643"><path fill="#E6E6E6" d="M1 1.9C.3 3.3 0 103.5 0 318.5v314.7l3.4 3.4c3.2 3.2 3.8 3.4 9.8 3.4l6.3-.1 83-144.1c45.7-79.3 84.2-146.3 85.7-148.9l2.8-4.8-7.3-4.8c-9.6-6.4-29-25.8-35.5-35.8-10.1-15.2-16.9-31.3-20.8-49.6-2.6-11.9-2.6-41.9 0-53.8 6.2-28.6 18.7-51.3 39-70.9 19.5-18.8 40.8-30 67.9-35.9 13-2.8 41-2.5 54.6.5 12.2 2.8 21.9 6.1 31.3 10.8l6.8 3.4 1.6-2.7c5.2-8.5 6.6-10.4 9.6-12.6 7.1-5.2 15.3-6.1 23.4-2.3 2.8 1.3 6 3.5 7.1 5 1.1 1.4 72.6 125 158.9 274.6l156.8 272h10.4c5.7 0 11.2-.5 12.3-1 1.9-1.1 1.9-5.7 1.9-320V0H355.5C7.1 0 2.1 0 1 1.9z"/><path fill="#3F3C56" d="M343.5 88.9c-2.2 1-5.4 3.3-7 5.2-1.7 1.9-32.3 54.3-68.2 116.4C232.5 272.7 162 395 111.6 482.4 61.2 569.7 20 641.4 20 641.6c0 .2 98.7.4 219.3.3h219.2l57-83.1c31.4-45.7 58.9-85.9 61.3-89.3l4.3-6.3-105.7-183.3C398.6 146.5 368.8 95.5 366 92.9c-6.3-5.9-15-7.4-22.5-4z"/><path fill="#008B6F" d="M242.3 91.1C174.9 101.5 126 157.8 126 225c0 32.6 12.1 64.8 33.1 88.4 8 8.9 18.6 18.4 26.3 23.6 5.4 3.5 6.1 3.7 7.1 2.2 6-8.8 133.4-231.7 132.8-232.3-3.5-3.4-24.9-11.5-38.3-14.4-9-1.9-35.9-2.8-44.7-1.4z"/><path fill="#323044" d="M520.7 553.2 460 641.5l56 .3c30.8.1 81.2.1 111.9 0l55.9-.3-50.4-87.4c-27.7-48.1-50.8-87.9-51.2-88.3-.5-.5-28.2 38.9-61.5 87.4z"/><path fill="#FFF" d="M0 638.9v4.1h9c10.4 0 12.1-1.6 2.4-2.2-5.8-.4-7-.8-9-3.2L0 634.9v4zm695.7 1.8c-14.5.5-13 2.3 1.9 2.3 9.5 0 11.4-.3 11.4-1.5 0-.8-.6-1.4-1.2-1.3-.7.1-6.2.4-12.1.5z"/><path fill="#F9F9F9" d="M11.3 640.7c1.5.2 3.9.2 5.5 0 1.5-.2.2-.4-2.8-.4s-4.3.2-2.7.4zm678.5 0c2.9.2 7.4.2 10 0 2.6-.2.2-.3-5.3-.3s-7.6.1-4.7.3z"/><path fill="#7F7D8E" d="M130.3 642.7c60.4.2 159 .2 219 0 60.1-.1 10.7-.2-109.8-.2-120.4 0-169.6.1-109.2.2z"/><path fill="#6E6C7B" d="M515.3 642.7c31.3.2 82.1.2 113 0 30.9-.1 5.4-.2-56.8-.2-62.1 0-87.4.1-56.2.2z"/></svg>